<svg width="64" height="64" viewBox="0 0 64 64" fill="none" xmlns="http://www.w3.org/2000/svg">
<path d="M5.33331 8H21.3333C24.1623 8 26.8754 9.12381 28.8758 11.1242C30.8762 13.1246 32 15.8377 32 18.6667V56C32 53.8783 31.1571 51.8434 29.6568 50.3431C28.1565 48.8429 26.1217 48 24 48H5.33331V8Z" stroke="url(#paint0_linear_7_126)" stroke-width="2" stroke-linecap="round" stroke-linejoin="round"/>
<path d="M58.6667 8H42.6667C39.8377 8 37.1246 9.12381 35.1242 11.1242C33.1238 13.1246 32 15.8377 32 18.6667V56C32 53.8783 32.8429 51.8434 34.3431 50.3431C35.8434 48.8429 37.8783 48 40 48H58.6667V8Z" stroke="url(#paint1_linear_7_126)" stroke-width="2" stroke-linecap="round" stroke-linejoin="round"/>
<defs>
<linearGradient id="paint0_linear_7_126" x1="18.6666" y1="8" x2="18.6666" y2="56" gradientUnits="userSpaceOnUse">
<stop stop-color="#048243"/>
<stop offset="1" stop-opacity="0"/>
<stop offset="1" stop-color="#32BF84"/>
</linearGradient>
<linearGradient id="paint1_linear_7_126" x1="45.3333" y1="8" x2="45.3333" y2="56" gradientUnits="userSpaceOnUse">
<stop stop-color="#048243"/>
<stop offset="1" stop-color="#32BF84"/>
</linearGradient>
</defs>
</svg>
